<?xml version="1.0" standalone="no"?>
<!DOCTYPE svg PUBLIC "-//W3C//DTD SVG 20010904//EN"
 "http://www.w3.org/TR/2001/REC-SVG-20010904/DTD/svg10.dtd">
<svg version="1.0" xmlns="http://www.w3.org/2000/svg"
 width="700.000000pt" height="700.000000pt" viewBox="0 0 700.000000 700.000000"
 preserveAspectRatio="xMidYMid meet">
<metadata>
Created by potrace 1.11, written by Peter Selinger 2001-2013
</metadata>
<g transform="translate(0.000000,700.000000) scale(0.100000,-0.100000)"
fill="#000000" stroke="none">
<path d="M1488 6773 c-271 -336 -363 -449 -412 -508 -28 -34 -64 -78 -81 -99
-16 -21 -35 -44 -40 -50 -6 -6 -87 -105 -180 -221 -93 -115 -201 -248 -240
-295 -38 -47 -84 -104 -102 -125 -107 -134 -399 -492 -410 -503 -7 -7 -13 -18
-13 -23 0 -5 70 -9 165 -9 150 0 165 -2 166 -17 0 -10 1 -1057 1 -2328 l1
-2310 -74 -2 c-41 -1 -90 -2 -110 -2 l-35 -1 -1 -110 -1 -110 3439 0 3439 0 0
110 0 110 -42 1 c-24 0 -169 2 -323 4 -306 3 -325 5 -435 42 -115 38 -205 96
-345 222 -62 56 -71 64 -215 191 -47 41 -89 80 -95 86 -5 5 -46 41 -90 80 -44
38 -89 77 -100 87 -20 18 -20 28 -20 823 0 712 1 804 15 805 8 0 24 2 35 4 11
2 38 6 60 9 120 14 372 97 447 148 14 10 29 18 33 18 11 0 145 90 200 135 125
101 278 279 343 399 15 27 35 63 44 80 49 89 119 310 134 421 3 28 8 59 10 70
7 33 6 257 -1 300 -36 229 -60 313 -131 465 -70 149 -165 281 -289 406 l-111
111 28 40 c66 97 145 290 162 403 3 19 8 49 11 65 7 39 7 222 0 255 -3 14 -7
47 -10 73 -15 127 -110 346 -203 469 -177 231 -422 382 -704 433 -71 12 -314
13 -368 1 -14 -3 -48 -11 -77 -16 -186 -39 -399 -163 -547 -321 -191 -203
-291 -447 -300 -728 -7 -224 59 -460 178 -634 30 -43 29 -46 -28 -96 -65 -57
-146 -147 -208 -230 -67 -89 -166 -282 -202 -394 -76 -235 -92 -532 -40 -757
98 -431 372 -783 763 -980 128 -65 306 -122 421 -136 19 -2 52 -6 73 -10 l37
-6 0 -704 0 -705 -41 38 c-23 21 -47 43 -53 48 -6 6 -90 80 -186 165 -96 85
-195 173 -220 196 -99 91 -178 158 -240 205 -75 57 -217 128 -306 154 l-62 18
-1 426 c0 234 -3 443 -6 464 -22 158 -143 326 -290 403 -93 49 -171 64 -332
64 -104 0 -142 3 -145 13 -2 6 -4 354 -3 772 l0 760 168 3 c92 1 167 6 167 10
0 5 -8 17 -18 28 -10 10 -55 66 -102 124 -46 58 -87 107 -90 110 -3 3 -50 61
-105 130 -55 69 -107 134 -117 145 -9 11 -71 88 -138 170 -66 83 -147 181
-178 220 -87 107 -353 436 -461 570 -53 66 -98 122 -101 125 -3 3 -72 87 -153
188 l-148 182 -163 0 -163 0 -135 -167z m353 -62 c4 -1 103 -119 220 -263 260
-321 289 -357 311 -383 50 -59 728 -896 728 -898 0 -1 -592 -3 -1315 -3 -723
0 -1315 1 -1315 3 0 1 217 270 258 318 9 11 73 90 142 175 69 85 132 164 142
175 13 17 116 142 375 461 17 21 101 125 186 230 l155 191 54 -2 c29 -2 56 -3
59 -4z m3507 -6 c78 -8 196 -45 277 -86 226 -117 396 -327 461 -574 15 -55 19
-104 18 -225 -1 -139 -4 -164 -28 -240 -44 -143 -112 -257 -225 -380 -28 -30
-50 -58 -51 -61 0 -3 10 -10 23 -16 28 -13 189 -135 240 -182 52 -47 145 -161
193 -236 173 -270 230 -618 153 -940 -51 -215 -160 -408 -323 -571 -147 -146
-325 -252 -520 -308 -97 -29 -215 -50 -224 -41 -3 3 -6 309 -7 680 l0 675 240
96 c132 53 241 97 243 98 1 2 -15 48 -37 102 -29 73 -44 98 -56 96 -8 -2 -121
-46 -250 -98 -129 -51 -241 -94 -250 -94 -9 0 -127 45 -263 99 -135 55 -248
99 -250 97 -6 -6 -82 -199 -80 -202 2 -1 84 -34 183 -74 200 -79 239 -95 274
-113 l24 -12 1 -668 c1 -368 -2 -673 -5 -678 -8 -14 -169 17 -274 52 -126 42
-261 116 -377 206 -62 48 -192 192 -242 266 -80 121 -145 262 -171 373 -2 10
-9 37 -14 59 -22 85 -30 251 -19 358 7 67 9 84 24 162 9 48 53 175 81 235 92
199 232 366 419 498 49 35 95 67 103 72 11 6 -1 25 -50 81 -109 125 -170 226
-209 349 -30 94 -35 136 -34 285 1 122 4 152 28 228 90 299 320 528 611 608
125 34 210 40 363 24z m-2343 -2317 l0 -553 -1218 -1 -1217 -1 -1 21 c-3 59
-4 1072 -1 1079 2 4 551 7 1220 7 l1217 0 0 -552z m-2216 -1553 l0 -775 -108
0 c-78 0 -110 4 -113 13 -3 10 -2 1505 1 1530 1 4 50 7 111 7 l109 0 0 -775z
m441 0 l0 -775 -110 0 -110 0 0 775 0 775 110 0 110 0 0 -775z m445 3 l0 -773
-110 0 -110 0 -1 773 -1 772 111 0 111 0 0 -772z m445 -3 l0 -775 -110 0 c-81
0 -110 3 -111 13 0 16 0 1428 0 1490 l1 47 110 0 110 0 0 -775z m441 763 c3
-40 4 -1515 1 -1525 -3 -9 -35 -13 -113 -13 l-109 0 0 775 0 775 110 0 c81 0
110 -3 111 -12z m444 -760 l0 -773 -111 -3 -111 -3 0 776 0 775 111 0 111 0 0
-772z m543 313 c52 -16 129 -69 163 -112 37 -47 69 -127 69 -173 l0 -33 -275
0 -275 0 0 168 0 167 143 -3 c78 -2 157 -8 175 -14z m135 -540 l97 -1 0 -275
0 -275 -275 0 c-268 0 -275 0 -276 20 0 11 0 112 0 225 0 113 0 227 0 255 l1
49 113 3 c61 2 141 2 177 1 36 -1 109 -2 163 -2z m-678 -1548 c0 -425 -2 -774
-5 -774 -3 -1 -550 -2 -1217 -3 -1078 -1 -1212 0 -1215 14 -3 13 -2 1475 1
1520 1 14 129 16 1219 15 l1217 0 0 -772z m957 748 c138 -35 250 -97 365 -202
21 -18 74 -65 118 -104 44 -38 84 -75 90 -81 5 -5 48 -44 95 -85 47 -40 96
-84 110 -97 14 -12 102 -91 197 -175 l172 -152 1 -95 c1 -52 2 -187 3 -300 2
-113 1 -212 -1 -220 -3 -14 -109 -15 -943 -15 l-939 0 0 776 0 776 323 -2
c297 -1 329 -3 409 -24z m1463 -1176 c7 -5 45 -39 85 -75 40 -36 81 -72 90
-80 9 -8 49 -44 89 -79 39 -35 85 -75 101 -90 l30 -26 -242 -1 -243 0 1 190
c2 273 -3 246 41 205 20 -18 42 -38 48 -44z"/>
</g>
</svg>
